PathFileType	4	(X/Y/Z)	/Users/itak/Documents/Research/Walk-IL/dataset/trc/00232_00009.trc
DataRate	CameraRate	NumFrames	NumMarkers	Units	OrigDataRate	OrigDataStartFrame	OrigNumFrames
100.000000	100.000000	4	53	mm	100.000000	0	852
Frame#	Time	RPSI			LPSI			L3			STRN			T10			C7			CLAV			RBAK			LBAK			LSHO			LUPA			LAEL			LAOL			LWTS			LWPS			LFRA			LIFD			LHPS			LHTS			RSHO			RUPA			RAEL			RAOL			RWTS			RWPS			RFRA			RIFD			RHTS			RHPS			RBHD			LFHD			RFHD			LBHD			LHIP			RHIP			RASI			LASI			LKNE			LTHI			LANK			LTIP			LTOE			LMT1			LMT5			LHEE			RKNE			RTHI			RANK			RTIP			RTOE			RMT1			RMT5			RHEE			
		X1	Y1	Z1	X2	Y2	Z2	X3	Y3	Z3	X4	Y4	Z4	X5	Y5	Z5	X6	Y6	Z6	X7	Y7	Z7	X8	Y8	Z8	X9	Y9	Z9	X10	Y10	Z10	X11	Y11	Z11	X12	Y12	Z12	X13	Y13	Z13	X14	Y14	Z14	X15	Y15	Z15	X16	Y16	Z16	X17	Y17	Z17	X18	Y18	Z18	X19	Y19	Z19	X20	Y20	Z20	X21	Y21	Z21	X22	Y22	Z22	X23	Y23	Z23	X24	Y24	Z24	X25	Y25	Z25	X26	Y26	Z26	X27	Y27	Z27	X28	Y28	Z28	X29	Y29	Z29	X30	Y30	Z30	X31	Y31	Z31	X32	Y32	Z32	X33	Y33	Z33	X34	Y34	Z34	X35	Y35	Z35	X36	Y36	Z36	X37	Y37	Z37	X38	Y38	Z38	X39	Y39	Z39	X40	Y40	Z40	X41	Y41	Z41	X42	Y42	Z42	X43	Y43	Z43	X44	Y44	Z44	X45	Y45	Z45	X46	Y46	Z46	X47	Y47	Z47	X48	Y48	Z48	X49	Y49	Z49	X50	Y50	Z50	X51	Y51	Z51	X52	Y52	Z52	X53	Y53	Z53	

1	0	-99.12919616699219	1052.333129882812	835.060302734375	-80.11125183105469	1057.559692382812	716.0731811523438	-91.30718231201172	1131.315063476562	757.8854370117188	148.6562042236328	1321.82275390625	787.276611328125	-102.4336471557617	1258.228515625	763.77099609375	-44.54531097412109	1520.532104492188	764.0281372070312	120.5118179321289	1439.206176757812	785.570556640625	-125.6296005249023	1381.776000976562	831.5968627929688	-51.96744918823242	1481.572509765625	652.3345336914062	42.72971343994141	1482.1220703125	606.9712524414062	23.45157432556152	1362.732055664062	526.8436279296875	46.06455993652344	1152.22265625	504.6072692871094	-30.74987411499023	1134.996215820312	543.0848999023438	135.3168792724609	921.6845092773438	576.3223266601562	119.188720703125	902.9223022460938	495.6372375488281	72.77618408203125	1045.452392578125	495.8509826660156	145.2759246826172	727.0517578125	573.2039184570312	136.9090423583984	815.0209350585938	503.927734375	173.3422393798828	821.0119018554688	561.4844970703125	-4.025527954101562	1484.189331054688	940.350830078125	-28.50748062133789	1420.34716796875	1007.229187011719	-47.95043563842773	1139.401611328125	1049.713989257812	-76.91397857666016	1130.861572265625	959.0135498046875	93.02246856689453	925.6402587890625	1020.353271484375	36.19847869873047	911.607177734375	1081.605224609375	-21.61663055419922	1071.30712890625	1065.390747070312	109.6020278930664	732.58203125	1019.747436523438	132.5121917724609	805.7488403320312	1041.16845703125	76.5401611328125	805.4905395507812	1086.88232421875	-19.80419921875	1675.815185546875	800.8107299804688	200.5673370361328	1723.893798828125	771.3836059570312	169.1999664306641	1723.804077148438	866.5478515625	64.22074127197266	1683.383544921875	687.8951416015625	36.31810760498047	990.8591918945312	591.8485107421875	-18.31842231750488	1010.762756347656	955.2970581054688	83.97105407714844	1051.198608398438	931.2944946289062	131.2304229736328	1031.139404296875	653.6851806640625	47.82167053222656	505.3775024414062	639.5872802734375	54.4046630859375	648.8969116210938	607.6445922851562	-37.23762130737305	35.73828125	648.2023315429688	-3.490807056427002	284.3424682617188	631.9033203125	176.1956481933594	42.44278335571289	711.4818115234375	105.4375076293945	36.43771362304688	751.3274536132812	91.82396697998047	36.63374710083008	636.2294921875	-101.1899108886719	41.86344146728516	698.2564697265625	5.453216075897217	516.2350463867188	918.1676025390625	31.77952194213867	783.8062133789062	967.5179443359375	-65.16417694091797	34.67264556884766	878.6694946289062	10.59010791778564	401.8102722167969	901.1203002929688	151.5071868896484	43.70166778564453	874.3466186523438	104.4150161743164	41.70499038696289	822.0873413085938	38.82507705688477	36.33147430419922	924.5648803710938	-116.4624557495117	33.72574234008789	811.00048828125	
2	0.01	-99.11351776123047	1052.35595703125	835.0733032226562	-80.09641265869141	1057.562133789062	716.094482421875	-91.28759765625	1131.33349609375	757.9183349609375	148.6812744140625	1321.812866210938	787.2666015625	-102.4150466918945	1258.234619140625	763.7800903320312	-44.48958206176758	1520.547241210938	764.0432739257812	120.5355911254883	1439.19677734375	785.5678100585938	-125.5791778564453	1381.787719726562	831.6121826171875	-51.94084167480469	1481.567504882812	652.33642578125	42.75907897949219	1482.105102539062	606.9630737304688	23.46699714660645	1362.721313476562	526.84130859375	46.04348754882812	1152.197143554688	504.6222229003906	-30.75337028503418	1134.95068359375	543.0860595703125	135.2369689941406	921.651123046875	576.3766479492188	119.1446380615234	902.885009765625	495.6836242675781	72.73758697509766	1045.422485351562	495.8779602050781	145.2102355957031	727.0288696289062	573.25	136.8090972900391	814.980224609375	503.9558715820312	173.2547302246094	820.9873657226562	561.5282592773438	-3.992302417755127	1484.19384765625	940.353271484375	-28.44261741638184	1420.357299804688	1007.240051269531	-47.93523025512695	1139.42138671875	1049.736450195312	-76.91314697265625	1130.880004882812	959.03759765625	92.90745544433594	925.5738525390625	1020.393310546875	36.17105484008789	911.6046752929688	1081.63916015625	-21.64340591430664	1071.311401367188	1065.418090820312	109.4151000976562	732.5211181640625	1019.799499511719	132.2505340576172	805.6411743164062	1041.23681640625	76.43761444091797	805.4540405273438	1086.932006835938	-19.76374626159668	1675.832275390625	800.8062133789062	200.6296997070312	1723.8701171875	771.3275756835938	169.3400268554688	1723.7841796875	866.4810180664062	64.24671936035156	1683.37451171875	687.8740234375	36.27437973022461	990.8626098632812	591.8307495117188	-18.2868537902832	1010.761840820312	955.2996215820312	84.01052856445312	1051.197509765625	931.2991943359375	131.248779296875	1031.132568359375	653.677978515625	47.80587768554688	505.3772583007812	639.5830688476562	54.38108062744141	648.8958129882812	607.6437377929688	-37.23300933837891	35.74106216430664	648.2025756835938	-3.495605945587158	284.3411865234375	631.9043579101562	176.1958160400391	42.43927383422852	711.4820556640625	105.4402084350586	36.42655181884766	751.3250732421875	91.82419586181641	36.63423538208008	636.227294921875	-101.1823043823242	41.86415863037109	698.2574462890625	5.463508129119873	516.2343139648438	918.1705932617188	31.80491065979004	783.8002319335938	967.5114135742188	-65.17366790771484	34.67234802246094	878.6784057617188	10.60519504547119	401.8117980957031	901.1178588867188	151.5021514892578	43.69856643676758	874.3397827148438	104.4139556884766	41.70428466796875	822.0858764648438	38.82415771484375	36.33396911621094	924.5592041015625	-116.4569931030273	33.72177505493164	810.9839477539062	
3	0.02	-99.09249114990234	1052.383544921875	835.0908203125	-80.0770263671875	1057.56494140625	716.11962890625	-91.26351165771484	1131.361450195312	757.9629516601562	148.7124786376953	1321.798706054688	787.2545776367188	-102.3931274414062	1258.24267578125	763.7940673828125	-44.4200553894043	1520.564819335938	764.0642700195312	120.5649261474609	1439.185791015625	785.566162109375	-125.515007019043	1381.80078125	831.6351318359375	-51.90953826904297	1481.563232421875	652.3397216796875	42.79830551147461	1482.08642578125	606.9551391601562	23.4859504699707	1362.709350585938	526.8387451171875	46.02104568481445	1152.167846679688	504.6402893066406	-30.75811195373535	1134.902221679688	543.088623046875	135.1509094238281	921.610107421875	576.4390258789062	119.0942916870117	902.8411865234375	495.7382202148438	72.69767761230469	1045.388061523438	495.9108581542969	145.1195831298828	726.9993286132812	573.3047485351562	136.6894378662109	814.9324340820312	503.9906311035156	173.1456451416016	820.9567260742188	561.5799560546875	-3.953429222106934	1484.200073242188	940.3591918945312	-28.36591148376465	1420.370483398438	1007.25439453125	-47.91947937011719	1139.445434570312	1049.76611328125	-76.91777038574219	1130.904052734375	959.0711669921875	92.75125885009766	925.4908447265625	1020.448974609375	36.13189697265625	911.5999755859375	1081.68212890625	-21.67559242248535	1071.318481445312	1065.4521484375	109.2012252807617	732.4481811523438	1019.868225097656	131.9490203857422	805.5127563476562	1041.318115234375	76.30020141601562	805.4074096679688	1086.998779296875	-19.70892715454102	1675.849243164062	800.80126953125	200.7057647705078	1723.84130859375	771.2575073242188	169.5132904052734	1723.758544921875	866.4010009765625	64.28214263916016	1683.3603515625	687.8485717773438	36.2264289855957	990.8681640625	591.80712890625	-18.24893188476562	1010.761047363281	955.3040161132812	84.05570983886719	1051.196044921875	931.3060302734375	131.2735900878906	1031.1240234375	653.66796875	47.78206253051758	505.3775634765625	639.577392578125	54.3516845703125	648.8951416015625	607.64208984375	-37.22793960571289	35.74312973022461	648.2028198242188	-3.504238367080688	284.3385620117188	631.9046630859375	176.1968231201172	42.4360237121582	711.4818115234375	105.4433364868164	36.41658020019531	751.3223266601562	91.82573699951172	36.63357925415039	636.2244262695312	-101.1737976074219	41.86549377441406	698.2586059570312	5.479146957397461	516.2332763671875	918.1748657226562	31.83166122436523	783.7930908203125	967.5068359375	-65.18335723876953	34.66970062255859	878.687744140625	10.62243747711182	401.8124389648438	901.1159057617188	151.4969940185547	43.69533157348633	874.3340454101562	104.4128570556641	41.70355606079102	822.0842895507812	38.8243408203125	36.33559036254883	924.552734375	-116.4536285400391	33.71904754638672	810.9692993164062	
4	0.03	-99.06667327880859	1052.413696289062	835.1123657226562	-80.05360412597656	1057.568603515625	716.1470336914062	-91.23488616943359	1131.397216796875	758.017333984375	148.7490844726562	1321.78076171875	787.24169921875	-102.3687744140625	1258.252807617188	763.8133544921875	-44.33965301513672	1520.583862304688	764.0913696289062	120.5991439819336	1439.173950195312	785.5662841796875	-125.4398193359375	1381.814331054688	831.6666259765625	-51.87527465820312	1481.56103515625	652.3449096679688	42.84682846069336	1482.068237304688	606.9491577148438	23.50774765014648	1362.697631835938	526.8363037109375	46.00035095214844	1152.1376953125	504.6605224609375	-30.76362991333008	1134.857055664062	543.0929565429688	135.0679321289062	921.5640869140625	576.5042114257812	119.0425262451172	902.7945556640625	495.7970275878906	72.66203308105469	1045.35205078125	495.9476928710938	145.0032501220703	726.9634399414062	573.3644409179688	136.5580749511719	814.881103515625	504.0298461914062	173.0202484130859	820.9213256835938	561.6362915039062	-3.911588907241821	1484.207763671875	940.3695068359375	-28.28266906738281	1420.386108398438	1007.271911621094	-47.90552139282227	1139.472290039062	1049.802856445312	-76.92963409423828	1130.933471679688	959.114501953125	92.55784606933594	925.3955688476562	1020.519836425781	36.07910919189453	911.5933837890625	1081.732788085938	-21.71132278442383	1071.329223632812	1065.491821289062	108.9719467163086	732.3652954101562	1019.954223632812	131.6326446533203	805.3720703125	1041.4072265625	76.12953186035156	805.3525390625	1087.081909179688	-19.63986206054688	1675.864624023438	800.7964477539062	200.7926025390625	1723.808715820312	771.1768188476562	169.7102508544922	1723.728393554688	866.3133544921875	64.32668304443359	1683.340576171875	687.8204345703125	36.18178558349609	990.8766479492188	591.778564453125	-18.20696830749512	1010.760986328125	955.3108520507812	84.10272216796875	1051.19384765625	931.3152465820312	131.3050994873047	1031.114868164062	653.6558837890625	47.74991226196289	505.3787231445312	639.5696411132812	54.31814956665039	648.8955078125	607.6397705078125	-37.22346496582031	35.74349594116211	648.2030639648438	-3.517979383468628	284.3343200683594	631.9033813476562	176.1986999511719	42.43329620361328	711.4812622070312	105.4463348388672	36.40895462036133	751.3196411132812	91.82833099365234	36.63156127929688	636.2205810546875	-101.1656112670898	41.8670654296875	698.2598266601562	5.49988842010498	516.2317504882812	918.18017578125	31.85694122314453	783.7855834960938	967.5060424804688	-65.19119262695312	34.66549301147461	878.6954345703125	10.640305519104	401.8116149902344	901.1148681640625	151.4926147460938	43.69283294677734	874.3301391601562	104.4118728637695	41.70291519165039	822.0829467773438	38.82516098022461	36.336669921875	924.5465698242188	-116.4532318115234	33.71823501586914	810.958251953125	
